<?xml version="1.0" encoding="UTF-8"?>
<svg version="1.1" xmlns="http://www.w3.org/2000/svg" width="240" height="240">
<path d="M0 0 C79.2 0 158.4 0 240 0 C240 79.2 240 158.4 240 240 C160.8 240 81.6 240 0 240 C0 160.8 0 81.6 0 0 Z " fill="#FEFEFE" transform="translate(0,0)"/>
<path d="M0 0 C2.35944917 2.59539409 3.87600363 4.42214623 4.15625 7.98828125 C3.800776 12.70719862 2.4569976 15.64177376 -1 19 C-4.51301706 21.54390891 -7.76217352 21.3417602 -12 21 C-14.56452543 20.32382288 -17.07808802 19.53768042 -19.60546875 18.734375 C-34.26758868 14.23767264 -49.7357095 17.37935215 -63.3125 23.75 C-78.54391743 31.89798943 -89.38047343 44.64621076 -95.4375 60.8125 C-100.17701547 77.95718204 -97.68945448 96.19770143 -89.6875 111.875 C-80.24771995 127.26594574 -67.34167784 136.90435146 -50.1953125 142.16796875 C-32.95428737 146.1418605 -14.66691612 142.70285887 0.41796875 133.76953125 C12.96106301 125.17343186 20.78692736 113.76926521 26.83203125 99.98828125 C28.26332383 97.551733 29.55617069 96.41531122 32 95 C36.77153538 94.13879605 40.79427124 94.29665822 45 96.75 C47.90513882 100.01828117 48.89400919 101.74369722 49.265625 106.1484375 C48.94634062 110.77806096 47.5903037 113.77299695 45.4375 117.8125 C45.07325928 118.51391113 44.70901855 119.21532227 44.33374023 119.93798828 C41.32006821 125.62982459 38.01406483 130.9522704 34 136 C33.35804688 136.81726563 32.71609375 137.63453125 32.0546875 138.4765625 C18.8545137 154.20961098 -1.68356962 165.07634335 -22 168 C-49.09077743 169.7528781 -72.43160048 163.74721365 -93.125 145.625 C-105.86822179 133.78638963 -113.74330417 120.45222159 -119 104 C-119.34160156 102.95457031 -119.68320313 101.90914063 -120.03515625 100.83203125 C-126.00992219 79.35066347 -121.21719291 56.71777541 -111.1875 37.3125 C-99.76913052 17.26498106 -81.68677879 3.17368338 -60 -4 C-58.53820312 -4.50853516 -58.53820312 -4.50853516 -57.046875 -5.02734375 C-41.27805079 -9.60198927 -13.62526981 -10.59743207 0 0 Z " fill="#39ADF6" transform="translate(149,42)"/>
<path d="M0 0 C3.70390021 2.02666238 5.65363011 3.48044516 8 7 C8.47400458 12.11924945 7.96430209 14.84227759 5 19 C2.64453125 21.0703125 2.64453125 21.0703125 -0.1875 23.125 C-0.71085938 23.50696533 -1.23421875 23.88893066 -1.7734375 24.2824707 C-7.31019024 28.2922606 -12.96258955 32.13985579 -18.609375 35.9921875 C-23.34829635 39.22951954 -28.05089124 42.51773833 -32.75 45.8125 C-33.58982422 46.40119873 -34.42964844 46.98989746 -35.29492188 47.59643555 C-37.00859148 48.79799463 -38.72213257 49.99973704 -40.43554688 51.20166016 C-45.44225119 54.71264492 -50.45247975 58.2186038 -55.46386719 61.72290039 C-59.83592192 64.78100855 -64.20269145 67.8463276 -68.5625 70.921875 C-69.47257812 71.56253906 -70.38265625 72.20320313 -71.3203125 72.86328125 C-73.06665664 74.09285008 -74.81152427 75.32451948 -76.5546875 76.55859375 C-77.34101562 77.11160156 -78.12734375 77.66460937 -78.9375 78.234375 C-79.62714844 78.72131836 -80.31679687 79.20826172 -81.02734375 79.70996094 C-85.51969099 82.64777812 -88.5252504 83.56635341 -94 83 C-98.87908517 80.17618073 -102.69086477 76.61617464 -106.640625 72.66015625 C-107.24888123 72.05618515 -107.85713745 71.45221405 -108.48382568 70.8299408 C-109.76030728 69.55917225 -111.034217 68.28581552 -112.30566406 67.01000977 C-114.24940888 65.06309209 -116.20614208 63.12991465 -118.1640625 61.19726562 C-119.40706002 59.95654014 -120.64927499 58.71503007 -121.890625 57.47265625 C-122.47394592 56.89854507 -123.05726685 56.3244339 -123.65826416 55.73292542 C-126.65489008 52.70180199 -128.87755339 50.22880424 -130 46 C-129.91982499 41.51019962 -129.49221191 39.58055763 -126.5625 36.125 C-123.24797281 33.37636769 -122.52039804 33.03833406 -118.12890625 32.71484375 C-110.65079325 33.64829685 -105.82413868 40.35095387 -100.9375 45.5625 C-99.87233465 46.66784193 -98.80529197 47.771378 -97.73632812 48.87304688 C-95.13553075 51.56150781 -92.56114857 54.27367752 -90 57 C-87.22121713 55.67229076 -84.69353891 54.19640659 -82.15625 52.453125 C-81.41511963 51.94531494 -80.67398926 51.43750488 -79.91040039 50.91430664 C-79.11496826 50.36508545 -78.31953613 49.81586426 -77.5 49.25 C-76.66267334 48.67435303 -75.82534668 48.09870605 -74.96264648 47.50561523 C-66.44685091 41.64055227 -57.97797261 35.70860531 -49.51611328 29.76611328 C-47.01075769 28.00755105 -44.50378163 26.2513283 -41.99609375 24.49609375 C-41.17061035 23.91802979 -40.34512695 23.33996582 -39.49462891 22.74438477 C-37.84076341 21.58790904 -36.18550325 20.43342506 -34.52880859 19.28100586 C-30.16231075 16.23908406 -25.83315656 13.15664414 -21.54296875 10.0078125 C-20.64642578 9.358125 -19.74988281 8.7084375 -18.82617188 8.0390625 C-17.11064851 6.79464141 -15.40429647 5.53744306 -13.70898438 4.265625 C-9.03370028 0.89786849 -5.98335064 -0.94748819 0 0 Z " fill="#225AA9" transform="translate(205,58)"/>
</svg>
